<mxfile host="65bd71144e">
    <diagram name="Page-1" id="_muBPrpG7ApsDm3bkieO">
        <mxGraphModel dx="1542" dy="1062" grid="1" gridSize="10" guides="1" tooltips="1" connect="1" arrows="1" fold="1" page="1" pageScale="1" pageWidth="827" pageHeight="1169" math="0" shadow="0">
            <root>
                <mxCell id="0"/>
                <mxCell id="1" parent="0"/>
                <mxCell id="39" style="edgeStyle=orthogonalEdgeStyle;shape=connector;curved=0;rounded=0;html=1;entryX=0;entryY=0.5;entryDx=0;entryDy=0;strokeColor=default;align=center;verticalAlign=middle;fontFamily=Helvetica;fontSize=11;fontColor=default;labelBackgroundColor=default;endArrow=classic;strokeWidth=1;" parent="1" source="_g_-pIgFg-YZKvBXQmOI-11" target="_g_-pIgFg-YZKvBXQmOI-55" edge="1">
                    <mxGeometry relative="1" as="geometry"/>
                </mxCell>
                <mxCell id="_g_-pIgFg-YZKvBXQmOI-11" value="&lt;font style=&quot;font-size: 14px;&quot;&gt;&lt;b&gt;Fil de kanthal&lt;/b&gt;&lt;/font&gt;" style="rounded=1;whiteSpace=wrap;html=1;fillColor=#fff2cc;strokeColor=#d6b656;strokeWidth=1;" parent="1" vertex="1">
                    <mxGeometry x="210" y="470" width="120" height="60" as="geometry"/>
                </mxCell>
                <mxCell id="_g_-pIgFg-YZKvBXQmOI-32" style="edgeStyle=orthogonalEdgeStyle;rounded=0;orthogonalLoop=1;jettySize=auto;html=1;exitX=0.5;exitY=1;exitDx=0;exitDy=0;strokeWidth=1;" parent="1" edge="1">
                    <mxGeometry relative="1" as="geometry">
                        <mxPoint x="1030" y="420" as="sourcePoint"/>
                        <mxPoint x="1030" y="420" as="targetPoint"/>
                    </mxGeometry>
                </mxCell>
                <mxCell id="_g_-pIgFg-YZKvBXQmOI-103" style="edgeStyle=orthogonalEdgeStyle;rounded=0;orthogonalLoop=1;jettySize=auto;html=1;entryX=0;entryY=0.5;entryDx=0;entryDy=0;strokeWidth=1;" parent="1" source="_g_-pIgFg-YZKvBXQmOI-55" target="_g_-pIgFg-YZKvBXQmOI-56" edge="1">
                    <mxGeometry relative="1" as="geometry"/>
                </mxCell>
                <mxCell id="_g_-pIgFg-YZKvBXQmOI-55" value="&lt;font style=&quot;font-size: 14px;&quot; color=&quot;#808080&quot;&gt;&lt;b&gt;Production&lt;/b&gt;&lt;/font&gt;" style="rounded=0;whiteSpace=wrap;html=1;strokeWidth=1;strokeColor=#666666;fillColor=#f5f5f5;fontColor=#333333;" parent="1" vertex="1">
                    <mxGeometry x="374" y="500" width="120" height="60" as="geometry"/>
                </mxCell>
                <mxCell id="_g_-pIgFg-YZKvBXQmOI-102" style="edgeStyle=orthogonalEdgeStyle;rounded=0;orthogonalLoop=1;jettySize=auto;html=1;entryX=0;entryY=0.5;entryDx=0;entryDy=0;strokeWidth=1;" parent="1" source="_g_-pIgFg-YZKvBXQmOI-56" target="_g_-pIgFg-YZKvBXQmOI-57" edge="1">
                    <mxGeometry relative="1" as="geometry"/>
                </mxCell>
                <mxCell id="_g_-pIgFg-YZKvBXQmOI-56" value="&lt;font style=&quot;font-size: 14px;&quot; color=&quot;#808080&quot;&gt;&lt;b style=&quot;&quot;&gt;Distribution&lt;/b&gt;&lt;/font&gt;" style="rounded=0;whiteSpace=wrap;html=1;strokeWidth=1;strokeColor=#666666;fillColor=#f5f5f5;fontColor=#333333;" parent="1" vertex="1">
                    <mxGeometry x="534" y="500" width="120" height="60" as="geometry"/>
                </mxCell>
                <mxCell id="_g_-pIgFg-YZKvBXQmOI-104" style="edgeStyle=orthogonalEdgeStyle;rounded=0;orthogonalLoop=1;jettySize=auto;html=1;entryX=0;entryY=0.5;entryDx=0;entryDy=0;strokeWidth=1;" parent="1" source="_g_-pIgFg-YZKvBXQmOI-57" target="_g_-pIgFg-YZKvBXQmOI-58" edge="1">
                    <mxGeometry relative="1" as="geometry"/>
                </mxCell>
                <mxCell id="_g_-pIgFg-YZKvBXQmOI-57" value="&lt;font style=&quot;font-size: 14px;&quot; color=&quot;#808080&quot;&gt;&lt;b style=&quot;&quot;&gt;Utilisation&lt;/b&gt;&lt;/font&gt;" style="rounded=0;whiteSpace=wrap;html=1;strokeWidth=1;strokeColor=#666666;fillColor=#f5f5f5;fontColor=#333333;" parent="1" vertex="1">
                    <mxGeometry x="690" y="500" width="120" height="60" as="geometry"/>
                </mxCell>
                <mxCell id="_g_-pIgFg-YZKvBXQmOI-117" style="edgeStyle=orthogonalEdgeStyle;rounded=0;orthogonalLoop=1;jettySize=auto;html=1;exitX=1;exitY=0.5;exitDx=0;exitDy=0;entryX=0;entryY=0.5;entryDx=0;entryDy=0;strokeWidth=1;" parent="1" source="_g_-pIgFg-YZKvBXQmOI-58" target="_g_-pIgFg-YZKvBXQmOI-115" edge="1">
                    <mxGeometry relative="1" as="geometry"/>
                </mxCell>
                <mxCell id="_g_-pIgFg-YZKvBXQmOI-58" value="&lt;font style=&quot;font-size: 14px;&quot; color=&quot;#808080&quot;&gt;&lt;b style=&quot;&quot;&gt;Fin de vie&lt;/b&gt;&lt;/font&gt;" style="rounded=0;whiteSpace=wrap;html=1;strokeWidth=1;strokeColor=#666666;fillColor=#f5f5f5;fontColor=#333333;" parent="1" vertex="1">
                    <mxGeometry x="850" y="500" width="120" height="60" as="geometry"/>
                </mxCell>
                <mxCell id="41" style="edgeStyle=orthogonalEdgeStyle;shape=connector;curved=0;rounded=0;html=1;entryX=0;entryY=0.5;entryDx=0;entryDy=0;strokeColor=default;align=center;verticalAlign=middle;fontFamily=Helvetica;fontSize=11;fontColor=default;labelBackgroundColor=default;endArrow=classic;strokeWidth=1;" parent="1" source="_g_-pIgFg-YZKvBXQmOI-84" target="_g_-pIgFg-YZKvBXQmOI-55" edge="1">
                    <mxGeometry relative="1" as="geometry"/>
                </mxCell>
                <mxCell id="_g_-pIgFg-YZKvBXQmOI-84" value="&lt;font style=&quot;font-size: 14px;&quot;&gt;&lt;b&gt;Inox&lt;/b&gt;&lt;/font&gt;" style="rounded=1;whiteSpace=wrap;html=1;fillColor=#ffe6cc;strokeColor=#d79b00;strokeWidth=1;" parent="1" vertex="1">
                    <mxGeometry x="210" y="560" width="120" height="60" as="geometry"/>
                </mxCell>
                <mxCell id="42" style="edgeStyle=orthogonalEdgeStyle;shape=connector;curved=0;rounded=0;html=1;entryX=0;entryY=0.5;entryDx=0;entryDy=0;strokeColor=default;align=center;verticalAlign=middle;fontFamily=Helvetica;fontSize=11;fontColor=default;labelBackgroundColor=default;endArrow=classic;strokeWidth=1;" parent="1" source="_g_-pIgFg-YZKvBXQmOI-85" target="_g_-pIgFg-YZKvBXQmOI-55" edge="1">
                    <mxGeometry relative="1" as="geometry"/>
                </mxCell>
                <mxCell id="_g_-pIgFg-YZKvBXQmOI-85" value="&lt;font style=&quot;font-size: 14px;&quot;&gt;&lt;b&gt;Poudre isolante&lt;/b&gt;&lt;/font&gt;" style="rounded=1;whiteSpace=wrap;html=1;strokeWidth=1;" parent="1" vertex="1">
                    <mxGeometry x="210" y="640" width="120" height="60" as="geometry"/>
                </mxCell>
                <mxCell id="_g_-pIgFg-YZKvBXQmOI-96" style="edgeStyle=orthogonalEdgeStyle;rounded=0;orthogonalLoop=1;jettySize=auto;html=1;entryX=0.5;entryY=0;entryDx=0;entryDy=0;strokeWidth=1;" parent="1" source="_g_-pIgFg-YZKvBXQmOI-93" target="_g_-pIgFg-YZKvBXQmOI-56" edge="1">
                    <mxGeometry relative="1" as="geometry">
                        <Array as="points">
                            <mxPoint x="444" y="460"/>
                            <mxPoint x="594" y="460"/>
                        </Array>
                    </mxGeometry>
                </mxCell>
                <mxCell id="_g_-pIgFg-YZKvBXQmOI-93" value="&lt;b&gt;&lt;font style=&quot;font-size: 14px;&quot;&gt;importation&lt;/font&gt;&lt;/b&gt;" style="rounded=1;whiteSpace=wrap;html=1;fillColor=#dae8fc;strokeColor=#6c8ebf;strokeWidth=1;" parent="1" vertex="1">
                    <mxGeometry x="390" y="370" width="120" height="60" as="geometry"/>
                </mxCell>
                <mxCell id="_g_-pIgFg-YZKvBXQmOI-97" style="edgeStyle=orthogonalEdgeStyle;rounded=0;orthogonalLoop=1;jettySize=auto;html=1;entryX=0.5;entryY=0;entryDx=0;entryDy=0;strokeWidth=1;" parent="1" source="_g_-pIgFg-YZKvBXQmOI-94" target="_g_-pIgFg-YZKvBXQmOI-56" edge="1">
                    <mxGeometry relative="1" as="geometry"/>
                </mxCell>
                <mxCell id="_g_-pIgFg-YZKvBXQmOI-94" value="&lt;font style=&quot;font-size: 14px;&quot;&gt;&lt;b&gt;Collecte en magasin&lt;/b&gt;&lt;/font&gt;" style="rounded=1;whiteSpace=wrap;html=1;fillColor=#dae8fc;strokeColor=#6c8ebf;strokeWidth=1;" parent="1" vertex="1">
                    <mxGeometry x="534" y="370" width="120" height="60" as="geometry"/>
                </mxCell>
                <mxCell id="_g_-pIgFg-YZKvBXQmOI-98" style="edgeStyle=orthogonalEdgeStyle;rounded=0;orthogonalLoop=1;jettySize=auto;html=1;entryX=0.5;entryY=0;entryDx=0;entryDy=0;strokeWidth=1;" parent="1" source="_g_-pIgFg-YZKvBXQmOI-95" target="_g_-pIgFg-YZKvBXQmOI-56" edge="1">
                    <mxGeometry relative="1" as="geometry">
                        <Array as="points">
                            <mxPoint x="724" y="460"/>
                            <mxPoint x="594" y="460"/>
                        </Array>
                    </mxGeometry>
                </mxCell>
                <mxCell id="_g_-pIgFg-YZKvBXQmOI-95" value="&lt;b&gt;&lt;font style=&quot;font-size: 14px;&quot;&gt;Livraison&lt;/font&gt;&lt;/b&gt;" style="rounded=1;whiteSpace=wrap;html=1;fillColor=#dae8fc;strokeColor=#6c8ebf;strokeWidth=1;" parent="1" vertex="1">
                    <mxGeometry x="664" y="370" width="120" height="60" as="geometry"/>
                </mxCell>
                <mxCell id="35" style="edgeStyle=orthogonalEdgeStyle;shape=connector;curved=0;rounded=0;html=1;entryX=0;entryY=0.5;entryDx=0;entryDy=0;strokeColor=default;align=center;verticalAlign=middle;fontFamily=Helvetica;fontSize=11;fontColor=default;labelBackgroundColor=default;endArrow=classic;strokeWidth=1;" parent="1" source="_g_-pIgFg-YZKvBXQmOI-115" target="_g_-pIgFg-YZKvBXQmOI-122" edge="1">
                    <mxGeometry relative="1" as="geometry"/>
                </mxCell>
                <mxCell id="36" style="edgeStyle=orthogonalEdgeStyle;shape=connector;curved=0;rounded=0;html=1;entryX=0;entryY=0.5;entryDx=0;entryDy=0;strokeColor=default;align=center;verticalAlign=middle;fontFamily=Helvetica;fontSize=11;fontColor=default;labelBackgroundColor=default;endArrow=classic;strokeWidth=1;" parent="1" source="_g_-pIgFg-YZKvBXQmOI-115" target="_g_-pIgFg-YZKvBXQmOI-118" edge="1">
                    <mxGeometry relative="1" as="geometry"/>
                </mxCell>
                <mxCell id="_g_-pIgFg-YZKvBXQmOI-115" value="&lt;font style=&quot;font-size: 14px;&quot;&gt;&lt;b&gt;traitement métaux&lt;/b&gt;&lt;/font&gt;" style="rounded=1;whiteSpace=wrap;html=1;fillColor=#e1d5e7;strokeColor=#9673a6;strokeWidth=1;" parent="1" vertex="1">
                    <mxGeometry x="1020" y="500" width="120" height="60" as="geometry"/>
                </mxCell>
                <mxCell id="_g_-pIgFg-YZKvBXQmOI-118" value="&lt;b&gt;&lt;font style=&quot;font-size: 14px;&quot;&gt;Réutilisation/&lt;/font&gt;&lt;/b&gt;&lt;div&gt;&lt;b&gt;&lt;font style=&quot;font-size: 14px;&quot;&gt;recyclage&lt;/font&gt;&lt;/b&gt;&lt;/div&gt;" style="rounded=1;whiteSpace=wrap;html=1;fillColor=#e1d5e7;strokeColor=#9673a6;strokeWidth=1;" parent="1" vertex="1">
                    <mxGeometry x="1160" y="440" width="120" height="60" as="geometry"/>
                </mxCell>
                <mxCell id="_g_-pIgFg-YZKvBXQmOI-122" value="&lt;div&gt;&lt;b&gt;&lt;font style=&quot;font-size: 14px;&quot;&gt;incinération&lt;/font&gt;&lt;/b&gt;&lt;/div&gt;" style="rounded=1;whiteSpace=wrap;html=1;fillColor=#e1d5e7;strokeColor=#9673a6;strokeWidth=1;" parent="1" vertex="1">
                    <mxGeometry x="1160" y="580" width="120" height="60" as="geometry"/>
                </mxCell>
                <mxCell id="TKz2kePubepipSxSgJpN-10" value="" style="edgeStyle=orthogonalEdgeStyle;rounded=0;orthogonalLoop=1;jettySize=auto;html=1;entryX=0.5;entryY=1;entryDx=0;entryDy=0;strokeWidth=1;" parent="1" source="TKz2kePubepipSxSgJpN-7" target="_g_-pIgFg-YZKvBXQmOI-57" edge="1">
                    <mxGeometry relative="1" as="geometry">
                        <Array as="points"/>
                    </mxGeometry>
                </mxCell>
                <mxCell id="TKz2kePubepipSxSgJpN-7" value="&lt;b&gt;&lt;font style=&quot;font-size: 14px;&quot;&gt;Mix énergétique Belge&lt;/font&gt;&lt;/b&gt;" style="rounded=1;whiteSpace=wrap;html=1;fillColor=#d5e8d4;strokeColor=#82b366;strokeWidth=1;" parent="1" vertex="1">
                    <mxGeometry x="690" y="620" width="120" height="60" as="geometry"/>
                </mxCell>
                <mxCell id="38" style="edgeStyle=orthogonalEdgeStyle;shape=connector;curved=0;rounded=0;html=1;entryX=0;entryY=0.5;entryDx=0;entryDy=0;strokeColor=default;align=center;verticalAlign=middle;fontFamily=Helvetica;fontSize=11;fontColor=default;labelBackgroundColor=default;endArrow=classic;strokeWidth=1;" parent="1" source="29" target="_g_-pIgFg-YZKvBXQmOI-55" edge="1">
                    <mxGeometry relative="1" as="geometry"/>
                </mxCell>
                <mxCell id="29" value="&lt;font style=&quot;font-size: 14px;&quot;&gt;&lt;b&gt;Support conducteur&lt;/b&gt;&lt;/font&gt;" style="rounded=1;whiteSpace=wrap;html=1;fillColor=#fff2cc;strokeColor=#d6b656;strokeWidth=1;" parent="1" vertex="1">
                    <mxGeometry x="210" y="370" width="120" height="60" as="geometry"/>
                </mxCell>
                <mxCell id="45" style="edgeStyle=none;html=1;entryX=0;entryY=0.5;entryDx=0;entryDy=0;" edge="1" parent="1" source="44" target="_g_-pIgFg-YZKvBXQmOI-84">
                    <mxGeometry relative="1" as="geometry"/>
                </mxCell>
                <mxCell id="44" value="&lt;font style=&quot;font-size: 14px;&quot;&gt;&lt;b&gt;?&lt;/b&gt;&lt;/font&gt;" style="rounded=1;whiteSpace=wrap;html=1;fillColor=#ffe6cc;strokeColor=#d79b00;strokeWidth=1;" vertex="1" parent="1">
                    <mxGeometry x="30" y="560" width="120" height="60" as="geometry"/>
                </mxCell>
            </root>
        </mxGraphModel>
    </diagram>
</mxfile>